<svg width="212" height="41" viewBox="0 0 212 41" fill="none" xmlns="http://www.w3.org/2000/svg">
<g clipPath="url(#clip0_416_30417)">
<path d="M45.4322 25.2232C45.4322 25.1946 45.4274 25.1658 45.4226 25.1373V19.707C45.4226 19.707 45.4226 19.6975 45.4226 19.6927V16.2815C45.4226 14.7266 44.8132 13.2626 43.7148 12.1623L33.3278 1.80436C31.049 -0.468154 27.3453 -0.468154 25.0713 1.80436L14.6796 12.1623C13.5762 13.2674 12.9717 14.7266 12.9717 16.2767V19.7022V19.7166V25.2042C12.9717 25.209 12.9717 25.2136 12.9717 25.2184C12.9717 25.2901 12.9861 25.3619 13.0053 25.4291C13.0101 25.4385 13.0101 25.4529 13.0149 25.4625C13.0532 25.5774 13.1156 25.6825 13.202 25.7687L18.7192 31.2657L25.0761 37.605C26.1746 38.7052 27.6379 39.3129 29.1972 39.3129C29.1972 39.3129 29.1972 39.3129 29.202 39.3129C30.7612 39.3129 32.2293 38.7052 33.3278 37.605L39.6895 31.2657L45.1684 25.7973C45.3266 25.6585 45.4322 25.4529 45.4322 25.2232ZM38.8116 29.9406H19.5924L15.6392 25.9984H42.76L38.8116 29.9406ZM19.6068 20.4821H38.7924L42.7648 24.4434H15.6392L19.6068 20.4821ZM37.2331 18.9272H21.166L24.4764 15.6261C24.8985 15.205 25.4695 14.9658 26.0692 14.9658H32.3251C32.92 14.9658 33.4958 15.2003 33.918 15.6213L37.2331 18.9272ZM14.5357 16.2815C14.5357 15.1428 14.9819 14.0712 15.7879 13.2626L26.1746 2.90474C27.8443 1.23982 30.5548 1.23982 32.2245 2.90474L42.6064 13.2626C43.4124 14.0664 43.8585 15.1381 43.8585 16.2815V18.9272H40.7738C39.9199 18.9272 39.1041 18.5875 38.4998 17.9895L34.6905 14.1956C34.1868 13.6932 33.5054 13.411 32.7907 13.411H25.6036C24.8937 13.411 24.2077 13.6932 23.7039 14.1956L19.8994 17.9895C19.2949 18.5923 18.4793 18.9272 17.6254 18.9272H14.5309V16.2815H14.5357ZM32.2245 36.5046C31.4136 37.3084 30.3439 37.7531 29.202 37.7531C28.06 37.7531 26.9904 37.3084 26.1842 36.5046L21.1564 31.4953H37.2523L32.2245 36.5046Z" fill="#252982"/>
<path d="M45.4322 25.2232C45.4322 25.1946 45.4274 25.1658 45.4226 25.1373V19.707C45.4226 19.707 45.4226 19.6975 45.4226 19.6927V16.2815C45.4226 14.7266 44.8132 13.2626 43.7148 12.1623L33.3278 1.80436C31.049 -0.468154 27.3453 -0.468154 25.0713 1.80436L14.6796 12.1623C13.5762 13.2674 12.9717 14.7266 12.9717 16.2767V19.7022V19.7166V25.2042C12.9717 25.209 12.9717 25.2136 12.9717 25.2184C12.9717 25.2901 12.9861 25.3619 13.0053 25.4291C13.0101 25.4385 13.0101 25.4529 13.0149 25.4625C13.0532 25.5774 13.1156 25.6825 13.202 25.7687L18.7192 31.2657L25.0761 37.605C26.1746 38.7052 27.6379 39.3129 29.1972 39.3129C29.1972 39.3129 29.1972 39.3129 29.202 39.3129C30.7612 39.3129 32.2293 38.7052 33.3278 37.605L39.6895 31.2657L45.1684 25.7973C45.3266 25.6585 45.4322 25.4529 45.4322 25.2232ZM38.8116 29.9406H19.5924L15.6392 25.9984H42.76L38.8116 29.9406ZM19.6068 20.4821H38.7924L42.7648 24.4434H15.6392L19.6068 20.4821ZM37.2331 18.9272H21.166L24.4764 15.6261C24.8985 15.205 25.4695 14.9658 26.0692 14.9658H32.3251C32.92 14.9658 33.4958 15.2003 33.918 15.6213L37.2331 18.9272ZM14.5357 16.2815C14.5357 15.1428 14.9819 14.0712 15.7879 13.2626L26.1746 2.90474C27.8443 1.23982 30.5548 1.23982 32.2245 2.90474L42.6064 13.2626C43.4124 14.0664 43.8585 15.1381 43.8585 16.2815V18.9272H40.7738C39.9199 18.9272 39.1041 18.5875 38.4998 17.9895L34.6905 14.1956C34.1868 13.6932 33.5054 13.411 32.7907 13.411H25.6036C24.8937 13.411 24.2077 13.6932 23.7039 14.1956L19.8994 17.9895C19.2949 18.5923 18.4793 18.9272 17.6254 18.9272H14.5309V16.2815H14.5357ZM32.2245 36.5046C31.4136 37.3084 30.3439 37.7531 29.202 37.7531C28.06 37.7531 26.9904 37.3084 26.1842 36.5046L21.1564 31.4953H37.2523L32.2245 36.5046Z" fill="#252982"/>
<path d="M25.6991 11.8569H32.6893C33.2267 11.8569 33.6489 11.3593 33.5241 10.8378C33.0635 8.88108 31.2981 7.42188 29.1918 7.42188C27.0856 7.42188 25.3249 8.88108 24.8596 10.8378C24.7444 11.3593 25.1617 11.8569 25.6991 11.8569Z" fill="#FF6243"/>
<path d="M45.4322 25.2232C45.4322 25.1946 45.4274 25.1658 45.4226 25.1373V19.707C45.4226 19.707 45.4226 19.6975 45.4226 19.6927V16.2815C45.4226 14.7266 44.8132 13.2626 43.7148 12.1623L33.3278 1.80436C31.049 -0.468154 27.3453 -0.468154 25.0713 1.80436L14.6796 12.1623C13.5762 13.2674 12.9717 14.7266 12.9717 16.2767V19.7022V19.7166V25.2042C12.9717 25.209 12.9717 25.2136 12.9717 25.2184C12.9717 25.2901 12.9861 25.3619 13.0053 25.4291C13.0101 25.4385 13.0101 25.4529 13.0149 25.4625C13.0532 25.5772 13.1156 25.6825 13.202 25.7687L18.7192 31.2657L25.0761 37.605C26.1746 38.7052 27.6379 39.3129 29.1972 39.3129C29.1972 39.3129 29.1972 39.3129 29.202 39.3129C30.7612 39.3129 32.2293 38.7052 33.3278 37.605L39.6895 31.2657L45.1684 25.7973C45.3266 25.6585 45.4322 25.4529 45.4322 25.2232ZM38.8116 29.9406H19.5924L15.6392 25.9984H42.76L38.8116 29.9406ZM19.6068 20.4821H38.7924L42.7648 24.4434H15.6392L19.6068 20.4821ZM37.2331 18.9272H21.166L24.4764 15.6261C24.8985 15.205 25.4695 14.9658 26.0692 14.9658H32.3251C32.92 14.9658 33.4958 15.2003 33.918 15.6213L37.2331 18.9272ZM14.5357 16.2815C14.5357 15.1428 14.9819 14.0712 15.7879 13.2626L26.1746 2.90474C27.8443 1.23982 30.5548 1.23982 32.2245 2.90474L42.6064 13.2626C43.4124 14.0664 43.8585 15.1381 43.8585 16.2815V18.9272H40.7738C39.9199 18.9272 39.1041 18.5875 38.4998 17.9895L34.6905 14.1956C34.1868 13.6932 33.5054 13.411 32.7907 13.411H25.6036C24.8937 13.411 24.2077 13.6932 23.7039 14.1956L19.8994 17.9895C19.2949 18.5923 18.4793 18.9272 17.6254 18.9272H14.5309V16.2815H14.5357ZM32.2245 36.5046C31.4136 37.3084 30.3439 37.7531 29.202 37.7531C28.06 37.7531 26.9904 37.3084 26.1842 36.5046L21.1564 31.4953H37.2523L32.2245 36.5046Z" fill="#252982"/>
<path d="M71.7895 10.2007C73.2501 10.8614 74.3678 11.8015 75.1555 13.0085C75.9429 14.2282 76.3365 15.6639 76.3365 17.3282C76.3365 18.9672 75.9429 20.4028 75.1555 21.6225C74.3678 22.8422 73.2374 23.7824 71.7895 24.4302C70.3288 25.0782 68.614 25.4087 66.6326 25.4087H62.1235V31.5832H56.9414V9.20972H66.6199C68.6013 9.20972 70.3288 9.54005 71.7895 10.2007ZM69.8841 20.1869C70.6972 19.5135 71.1036 18.5606 71.1036 17.3282C71.1036 16.0704 70.6972 15.1048 69.8841 14.4315C69.0712 13.7581 67.89 13.4278 66.3405 13.4278H62.1235V21.1905H66.3405C67.89 21.1905 69.0712 20.8602 69.8841 20.1869Z" fill="#252982"/>
<path d="M79.6655 9.20984H84.8479V31.5833H79.6655V9.20984Z" fill="#252982"/>
<path d="M107.138 27.4288V31.5832H89.813V9.20972H106.719V13.3643H94.9571V18.2176H105.347V22.2451H94.9571V27.4288H107.138Z" fill="#252982"/>
<path d="M125.39 31.5832L121.072 25.3451H120.818H116.309V31.5832H111.126V9.20972H120.805C122.787 9.20972 124.501 9.54005 125.962 10.2007C127.423 10.8614 128.54 11.8015 129.328 13.0085C130.116 14.2282 130.509 15.6639 130.509 17.3282C130.509 18.9926 130.116 20.4283 129.315 21.6225C128.515 22.8295 127.385 23.7443 125.911 24.3923L130.928 31.5832H125.39ZM124.082 14.4315C123.269 13.7581 122.088 13.4278 120.539 13.4278H116.322V21.2287H120.539C122.088 21.2287 123.269 20.8856 124.082 20.1996C124.895 19.5135 125.302 18.5606 125.302 17.3282C125.289 16.0704 124.882 15.1048 124.082 14.4315Z" fill="#252982"/>
<path d="M139.07 11.2552H131.208V9.20972H149.295V11.2552H141.433V31.5832H139.07V11.2552Z" fill="#252982"/>
<path d="M184.555 9.20972L177.01 31.5832H174.52L167.966 12.5003L161.387 31.5832H158.923L151.378 9.20972H153.804L160.256 28.4579L166.937 9.20972H169.148L175.727 28.5467L182.281 9.20972H184.555Z" fill="#252982"/>
<path d="M191.68 30.2872C189.876 29.2962 188.479 27.9366 187.463 26.2088C186.447 24.4808 185.939 22.5498 185.939 20.3899C185.939 18.2428 186.447 16.2989 187.463 14.571C188.479 12.8431 189.876 11.4837 191.68 10.4927C193.484 9.50171 195.49 9.00623 197.701 9.00623C199.911 9.00623 201.917 9.50171 203.696 10.48C205.474 11.4583 206.871 12.8177 207.9 14.5583C208.929 16.2989 209.437 18.2428 209.437 20.3899C209.437 22.5371 208.929 24.4808 207.9 26.2216C206.884 27.962 205.474 29.3216 203.696 30.2999C201.917 31.2781 199.923 31.7737 197.701 31.7737C195.49 31.7737 193.484 31.2781 191.68 30.2872ZM202.502 28.4576C203.924 27.6572 205.042 26.5518 205.855 25.1288C206.668 23.7059 207.074 22.1305 207.074 20.3772C207.074 18.6239 206.668 17.0485 205.855 15.6255C205.042 14.2026 203.924 13.0972 202.502 12.2968C201.079 11.4964 199.479 11.1026 197.713 11.1026C195.948 11.1026 194.347 11.4964 192.899 12.2968C191.464 13.0972 190.334 14.2026 189.508 15.6255C188.682 17.0485 188.276 18.6239 188.276 20.3772C188.276 22.1305 188.682 23.7059 189.508 25.1288C190.334 26.5518 191.452 27.6572 192.899 28.4576C194.335 29.258 195.935 29.6519 197.713 29.6519C199.466 29.6646 201.067 29.258 202.502 28.4576Z" fill="#252982"/>
</g>
<defs>
<clipPath id="clip0_416_30417">
<rect width="211.2" height="40.8" fill="white" transform="translate(0.399902 0.0999756)"/>
</clipPath>
</defs>
</svg>
