<svg width="20" height="20" viewBox="0 0 20 20" fill="none" xmlns="http://www.w3.org/2000/svg">
<g clipPath="url(#clip0_3462_8018)">
<path d="M12.2326 10.1668L12.2476 10.1526C12.3623 10.0379 12.4279 9.88322 12.4307 9.72109C12.4335 9.55896 12.3732 9.40207 12.2626 9.28348L10.5718 7.47181C10.5357 7.43334 10.5155 7.38253 10.5155 7.32973C10.5155 7.27693 10.5357 7.22612 10.5718 7.18765L12.2618 5.37598C12.376 5.25665 12.4383 5.09697 12.4352 4.93183C12.432 4.76669 12.3636 4.60952 12.2449 4.49467C12.1262 4.37982 11.9668 4.31663 11.8017 4.31891C11.6365 4.32118 11.479 4.38874 11.3635 4.50681L11.3485 4.52265L9.12681 6.90265C9.0188 7.01863 8.95874 7.17124 8.95874 7.32973C8.95874 7.48822 9.0188 7.64083 9.12681 7.75681L11.3485 10.1376C11.462 10.2585 11.6188 10.3294 11.7845 10.3349C11.9503 10.3403 12.1114 10.2799 12.2326 10.1668Z" fill="#6D7380"/>
<path d="M13.5716 9.28293C13.4574 9.40226 13.3951 9.56194 13.3983 9.72708C13.4014 9.89222 13.4698 10.0494 13.5885 10.1642C13.7073 10.2791 13.8666 10.3423 14.0317 10.34C14.1969 10.3377 14.3544 10.2702 14.4699 10.1521L14.4849 10.1371L16.7066 7.75626C16.8146 7.64028 16.8747 7.48767 16.8747 7.32918C16.8747 7.17069 16.8146 7.01808 16.7066 6.90209L14.4849 4.52209C14.3716 4.40093 14.2149 4.32972 14.0491 4.32409C13.8833 4.31847 13.722 4.37889 13.6008 4.49209C13.5389 4.54694 13.4888 4.61381 13.4536 4.68864C13.4184 4.76346 13.3988 4.84467 13.396 4.92732C13.3932 5.00996 13.4072 5.09231 13.4373 5.16935C13.4673 5.24639 13.5127 5.31651 13.5708 5.37543L15.2616 7.18709C15.2978 7.22557 15.3179 7.27638 15.3179 7.32918C15.3179 7.38197 15.2978 7.43278 15.2616 7.47126L13.5716 9.28293Z" fill="#6D7380"/>
<path d="M19.5117 2.5L17.5 0.489167C17.3453 0.334241 17.1617 0.211301 16.9595 0.127369C16.7573 0.0434364 16.5406 0.000156148 16.3217 0L6.66667 0C6.22465 0 5.80072 0.175595 5.48816 0.488155C5.1756 0.800716 5.00001 1.22464 5.00001 1.66667V7.67833C4.99955 7.73258 5.02045 7.78482 5.05817 7.8238C5.0959 7.86278 5.14744 7.88536 5.20167 7.88667C5.50667 7.89167 6.06667 7.91417 6.43917 7.955C6.46792 7.95817 6.49702 7.95523 6.52455 7.94636C6.55208 7.93749 6.57742 7.92289 6.59891 7.90353C6.6204 7.88417 6.63754 7.86048 6.64922 7.83402C6.6609 7.80756 6.66685 7.77892 6.66667 7.75V2.08333C6.66667 1.97283 6.71057 1.86685 6.78871 1.78871C6.86685 1.71057 6.97283 1.66667 7.08334 1.66667H16.1492C16.2595 1.66669 16.3653 1.71044 16.4433 1.78833L18.2117 3.55583C18.2504 3.5947 18.2811 3.64084 18.302 3.69161C18.3229 3.74238 18.3335 3.79677 18.3333 3.85167V15C18.3333 15.1105 18.2894 15.2165 18.2113 15.2946C18.1332 15.3728 18.0272 15.4167 17.9167 15.4167H12.1925C12.1438 15.4167 12.0968 15.4343 12.0599 15.4661C12.0231 15.4979 11.9989 15.5419 11.9917 15.59C11.9266 16.0042 11.8225 16.4113 11.6808 16.8058C11.6687 16.8367 11.6643 16.87 11.6681 16.9029C11.6718 16.9358 11.6836 16.9673 11.7023 16.9946C11.7211 17.022 11.7463 17.0442 11.7756 17.0596C11.805 17.0749 11.8377 17.0828 11.8708 17.0825H18.3333C18.7754 17.0825 19.1993 16.9069 19.5119 16.5943C19.8244 16.2818 20 15.8579 20 15.4158V3.67917C20.0001 3.46017 19.957 3.24332 19.8732 3.04099C19.7894 2.83866 19.6665 2.65483 19.5117 2.5Z" fill="#6D7380"/>
<path fillRule="evenodd" clipRule="evenodd" d="M5.49973 8.99988H5.49963C4.41184 8.99988 3.34847 9.32245 2.444 9.92679C1.53953 10.5311 0.834581 11.3901 0.418299 12.3951C0.00201684 13.4001 -0.106901 14.506 0.105317 15.5729C0.317536 16.6398 0.84136 17.6198 1.61055 18.389C2.37974 19.1582 3.35974 19.682 4.42664 19.8942C5.49353 20.1064 6.5994 19.9975 7.60439 19.5812C8.60939 19.1649 9.46837 18.46 10.0727 17.5555C10.6771 16.651 10.9996 15.5877 10.9996 14.4999V14.4998C10.9979 13.0416 10.418 11.6437 9.38689 10.6126C8.35582 9.58156 6.95788 9.00156 5.49973 8.99988ZM5.49954 18.6929C4.67028 18.6928 3.85964 18.4469 3.17014 17.9862C2.48061 17.5255 1.94318 16.8706 1.62583 16.1045C1.30847 15.3383 1.22543 14.4952 1.38722 13.6819C1.54901 12.8685 1.94835 12.1214 2.53475 11.535C3.12115 10.9486 3.86827 10.5492 4.68162 10.3875C5.49498 10.2257 6.33805 10.3087 7.10422 10.6261C7.87039 10.9434 8.52524 11.4808 8.98597 12.1704C9.44668 12.8599 9.6926 13.6705 9.69262 14.4998C9.69129 15.6114 9.24909 16.6772 8.46302 17.4633C7.67695 18.2493 6.6112 18.6915 5.49954 18.6929ZM6.54769 18.6447C6.2078 18.7309 5.85587 18.7758 5.49931 18.7763C4.65353 18.7763 3.82675 18.5255 3.12352 18.0556C2.42028 17.5857 1.87217 16.9178 1.54851 16.1364C1.22485 15.355 1.14016 14.4952 1.30516 13.6657C1.47017 12.8362 1.87744 12.0742 2.4755 11.4761C3.01756 10.9341 3.69429 10.5487 4.43392 10.3585C3.69442 10.5488 3.01781 10.9341 2.47582 11.4761C1.87777 12.0741 1.47049 12.8361 1.30549 13.6656C1.14049 14.4951 1.22517 15.355 1.54884 16.1364C1.8725 16.9177 2.42061 17.5856 3.12384 18.0555C3.82708 18.5254 4.65386 18.7762 5.49963 18.7762C5.85608 18.7758 6.2079 18.7309 6.54769 18.6447ZM4.18445 9.2453C4.61232 9.13821 5.05389 9.08321 5.49963 9.08321C6.93571 9.08487 8.3125 9.65609 9.32796 10.6715C10.3434 11.687 10.9146 13.0638 10.9163 14.4999C10.9163 15.5712 10.5986 16.6184 10.0034 17.5092C9.40824 18.4 8.56227 19.0942 7.5725 19.5042C7.36678 19.5894 7.15677 19.6616 6.9437 19.7205C7.15666 19.6616 7.36656 19.5895 7.57218 19.5043C8.56194 19.0943 9.40791 18.4001 10.0031 17.5093C10.5983 16.6185 10.916 15.5713 10.916 14.5C10.9143 13.0639 10.3431 11.6871 9.32764 10.6716C8.31218 9.65617 6.93539 9.08495 5.49931 9.08329C5.05368 9.08329 4.61222 9.13826 4.18445 9.2453Z" fill="#6D7380"/>
<path d="M6.78252 16.6381H6.35489C6.31708 16.6381 6.28082 16.6231 6.25409 16.5963C6.22736 16.5696 6.21234 16.5334 6.21234 16.4955V14.3574C6.21234 14.055 6.0922 13.7649 5.87834 13.551C5.66448 13.3372 5.37443 13.217 5.07199 13.217H4.50182C4.3506 13.217 4.20557 13.2771 4.09864 13.384C3.99171 13.491 3.93164 13.636 3.93164 13.7872C3.93164 13.9384 3.99171 14.0835 4.09864 14.1904C4.20557 14.2973 4.3506 14.3574 4.50182 14.3574H4.92945C4.94819 14.3573 4.96676 14.361 4.98409 14.3681C5.00141 14.3752 5.01716 14.3857 5.03041 14.399C5.04366 14.4122 5.05416 14.428 5.06129 14.4453C5.06843 14.4626 5.07207 14.4812 5.07199 14.4999V16.4955C5.07207 16.5143 5.06843 16.5329 5.06129 16.5502C5.05416 16.5675 5.04366 16.5833 5.03041 16.5965C5.01716 16.6098 5.00141 16.6203 4.98409 16.6274C4.96676 16.6345 4.94819 16.6382 4.92945 16.6381H4.50182C4.3506 16.6381 4.20557 16.6982 4.09864 16.8051C3.99171 16.912 3.93164 17.057 3.93164 17.2083C3.93164 17.3595 3.99171 17.5045 4.09864 17.6114C4.20557 17.7184 4.3506 17.7784 4.50182 17.7784H6.78252C6.93374 17.7784 7.07876 17.7184 7.18569 17.6114C7.29262 17.5045 7.35269 17.3595 7.35269 17.2083C7.35269 17.057 7.29262 16.912 7.18569 16.8051C7.07876 16.6982 6.93374 16.6381 6.78252 16.6381Z" fill="#6D7380"/>
<path d="M5.64213 12.7894C6.11448 12.7894 6.49739 12.4065 6.49739 11.9341C6.49739 11.4618 6.11448 11.0789 5.64213 11.0789C5.16978 11.0789 4.78687 11.4618 4.78687 11.9341C4.78687 12.4065 5.16978 12.7894 5.64213 12.7894Z" fill="#6D7380"/>
</g>
<defs>
<clipPath id="clip0_3462_8018">
<rect width="20" height="20" fill="white"/>
</clipPath>
</defs>
</svg>
