<svg width="24" height="24" viewBox="0 0 24 24" fill="none" xmlns="http://www.w3.org/2000/svg">
<path d="M21.75 18V21C21.75 21.3978 21.592 21.7794 21.3107 22.0607C21.0294 22.342 20.6478 22.5 20.25 22.5H3C2.40326 22.5 1.83097 22.2629 1.40901 21.841C0.987053 21.419 0.75 20.8467 0.75 20.25V3.75C0.75 3.15326 0.987053 2.58097 1.40901 2.15901C1.83097 1.73705 2.40326 1.5 3 1.5H18.75C19.1478 1.5 19.5294 1.65804 19.8107 1.93934C20.092 2.22064 20.25 2.60218 20.25 3V5.25" fill="white"/>
<path d="M21.75 18V21C21.75 21.3978 21.592 21.7794 21.3107 22.0607C21.0294 22.342 20.6478 22.5 20.25 22.5H3C2.40326 22.5 1.83097 22.2629 1.40901 21.841C0.987053 21.419 0.75 20.8467 0.75 20.25V3.75C0.75 3.15326 0.987053 2.58097 1.40901 2.15901C1.83097 1.73705 2.40326 1.5 3 1.5H18.75C19.1478 1.5 19.5294 1.65804 19.8107 1.93934C20.092 2.22064 20.25 2.60218 20.25 3V5.25" stroke="#375BD2" stroke-width="1.5" stroke-linecap="round" stroke-linejoin="round"/>
<g filter="url(#filter0_i_1814_27668)">
<path d="M21.75 18C22.1478 18 22.5294 17.842 22.8107 17.5607C23.092 17.2794 23.25 16.8978 23.25 16.5V12C23.25 11.6022 23.092 11.2206 22.8107 10.9393C22.5294 10.658 22.1478 10.5 21.75 10.5H18C17.0054 10.5 16.0516 10.8951 15.3483 11.5983C14.6451 12.3016 14.25 13.2554 14.25 14.25C14.25 15.2446 14.6451 16.1984 15.3483 16.9017C16.0516 17.6049 17.0054 18 18 18H21.75Z" fill="white"/>
</g>
<path d="M21.75 18C22.1478 18 22.5294 17.842 22.8107 17.5607C23.092 17.2794 23.25 16.8978 23.25 16.5V12C23.25 11.6022 23.092 11.2206 22.8107 10.9393C22.5294 10.658 22.1478 10.5 21.75 10.5H18C17.0054 10.5 16.0516 10.8951 15.3483 11.5983C14.6451 12.3016 14.25 13.2554 14.25 14.25C14.25 15.2446 14.6451 16.1984 15.3483 16.9017C16.0516 17.6049 17.0054 18 18 18H21.75Z" stroke="#375BD2" stroke-width="1.5" stroke-linecap="round" stroke-linejoin="round"/>
<g filter="url(#filter1_i_1814_27668)">
<path d="M18 13.875C18.0742 13.875 18.1467 13.897 18.2083 13.9382C18.27 13.9794 18.3181 14.038 18.3465 14.1065C18.3748 14.175 18.3823 14.2504 18.3678 14.3232C18.3533 14.3959 18.3176 14.4627 18.2652 14.5152C18.2127 14.5676 18.1459 14.6033 18.0732 14.6178C18.0004 14.6323 17.925 14.6248 17.8565 14.5965C17.788 14.5681 17.7294 14.52 17.6882 14.4583C17.647 14.3967 17.625 14.3242 17.625 14.25C17.625 14.1505 17.6645 14.0552 17.7348 13.9848C17.8052 13.9145 17.9005 13.875 18 13.875Z" fill="white"/>
</g>
<path d="M18 13.875C18.0742 13.875 18.1467 13.897 18.2083 13.9382C18.27 13.9794 18.3181 14.038 18.3465 14.1065C18.3748 14.175 18.3823 14.2504 18.3678 14.3232C18.3533 14.3959 18.3176 14.4627 18.2652 14.5152C18.2127 14.5676 18.1459 14.6033 18.0732 14.6178C18.0004 14.6323 17.925 14.6248 17.8565 14.5965C17.788 14.5681 17.7294 14.52 17.6882 14.4583C17.647 14.3967 17.625 14.3242 17.625 14.25C17.625 14.1505 17.6645 14.0552 17.7348 13.9848C17.8052 13.9145 17.9005 13.875 18 13.875Z" stroke="#375BD2" stroke-width="1.5" stroke-linecap="round" stroke-linejoin="round"/>
<g filter="url(#filter2_i_1814_27668)">
<path d="M21.75 10.5V6.75C21.75 6.35217 21.592 5.97064 21.3106 5.68934C21.0293 5.40803 20.6478 5.25 20.25 5.25H5.62499C5.2994 5.26531 4.97598 5.18969 4.69093 5.03163C4.40588 4.87356 4.17044 4.63927 4.01099 4.355" fill="white"/>
</g>
<path d="M21.75 10.5V6.75C21.75 6.35217 21.592 5.97064 21.3106 5.68934C21.0293 5.40803 20.6478 5.25 20.25 5.25H5.62499C5.2994 5.26531 4.97598 5.18969 4.69093 5.03163C4.40588 4.87356 4.17044 4.63927 4.01099 4.355" stroke="#375BD2" stroke-width="1.5" stroke-linecap="round" stroke-linejoin="round"/>
<defs>
<filter id="filter0_i_1814_27668" x="13.5" y="9.75" width="10.5" height="9" filterUnits="userSpaceOnUse" color-interpolation-filters="sRGB">
<feFlood flood-opacity="0" result="BackgroundImageFix"/>
<feBlend mode="normal" in="SourceGraphic" in2="BackgroundImageFix" result="shape"/>
<feColorMatrix in="SourceAlpha" type="matrix" values="0 0 0 0 0 0 0 0 0 0 0 0 0 0 0 0 0 0 127 0" result="hardAlpha"/>
<feOffset dx="-3" dy="1"/>
<feComposite in2="hardAlpha" operator="arithmetic" k2="-1" k3="1"/>
<feColorMatrix type="matrix" values="0 0 0 0 0.87451 0 0 0 0 0.905882 0 0 0 0 0.984314 0 0 0 1 0"/>
<feBlend mode="normal" in2="shape" result="effect1_innerShadow_1814_27668"/>
</filter>
<filter id="filter1_i_1814_27668" x="16.875" y="13.125" width="2.25" height="2.25" filterUnits="userSpaceOnUse" color-interpolation-filters="sRGB">
<feFlood flood-opacity="0" result="BackgroundImageFix"/>
<feBlend mode="normal" in="SourceGraphic" in2="BackgroundImageFix" result="shape"/>
<feColorMatrix in="SourceAlpha" type="matrix" values="0 0 0 0 0 0 0 0 0 0 0 0 0 0 0 0 0 0 127 0" result="hardAlpha"/>
<feOffset dx="-3" dy="1"/>
<feComposite in2="hardAlpha" operator="arithmetic" k2="-1" k3="1"/>
<feColorMatrix type="matrix" values="0 0 0 0 0.87451 0 0 0 0 0.905882 0 0 0 0 0.984314 0 0 0 1 0"/>
<feBlend mode="normal" in2="shape" result="effect1_innerShadow_1814_27668"/>
</filter>
<filter id="filter2_i_1814_27668" x="3.26086" y="3.60486" width="19.2391" height="7.64513" filterUnits="userSpaceOnUse" color-interpolation-filters="sRGB">
<feFlood flood-opacity="0" result="BackgroundImageFix"/>
<feBlend mode="normal" in="SourceGraphic" in2="BackgroundImageFix" result="shape"/>
<feColorMatrix in="SourceAlpha" type="matrix" values="0 0 0 0 0 0 0 0 0 0 0 0 0 0 0 0 0 0 127 0" result="hardAlpha"/>
<feOffset dx="-3" dy="1"/>
<feComposite in2="hardAlpha" operator="arithmetic" k2="-1" k3="1"/>
<feColorMatrix type="matrix" values="0 0 0 0 0.87451 0 0 0 0 0.905882 0 0 0 0 0.984314 0 0 0 1 0"/>
<feBlend mode="normal" in2="shape" result="effect1_innerShadow_1814_27668"/>
</filter>
</defs>
</svg>
