<svg width="200" height="200" viewBox="0 0 200 200" fill="none" xmlns="http://www.w3.org/2000/svg">
<g id="welcome.svg" clip-path="url(#clip0_185_1017)">
<g id="Clip path group">
<mask id="mask0_185_1017" style="mask-type:luminance" maskUnits="userSpaceOnUse" x="0" y="0" width="200" height="200">
<g id="clip0_659_51226">
<path id="Vector" d="M200 0H0V200H200V0Z" fill="white"/>
</g>
</mask>
<g mask="url(#mask0_185_1017)">
<g id="Group">
<path id="Vector_2" d="M186.937 150.007V50.0241L100.33 0.000244141L13.7207 50.0241V150.007L100.33 200L186.937 150.007Z" fill="url(#paint0_linear_185_1017)"/>
<path id="Vector_3" d="M121.465 94.6063H165.592V66.0747" stroke="#9DB4F4" stroke-width="0.212571" stroke-miterlimit="10"/>
<path id="Vector_4" d="M165.592 64.0387C164.54 64.0387 163.688 63.2255 163.688 62.2224C163.688 61.2192 164.54 60.406 165.592 60.406C166.643 60.406 167.496 61.2192 167.496 62.2224C167.496 63.2255 166.643 64.0387 165.592 64.0387Z" stroke="#9DB4F4" stroke-width="0.212571" stroke-miterlimit="10"/>
<path id="Vector_5" d="M54.9511 104.862H10.8345V114.025" stroke="#9DB4F4" stroke-width="0.212571" stroke-miterlimit="10"/>
<path id="Vector_6" d="M10.7021 116.086C11.7536 116.086 12.6059 116.9 12.6059 117.903C12.6059 118.906 11.7536 119.719 10.7021 119.719C9.6507 119.719 8.79834 118.906 8.79834 117.903C8.79834 116.9 9.6507 116.086 10.7021 116.086Z" stroke="#9DB4F4" stroke-width="0.212571" stroke-miterlimit="10"/>
<path id="Vector_7" d="M112 59.8941C117.464 59.8941 121.894 55.4643 121.894 50C121.894 44.5357 117.464 40.106 112 40.106C106.536 40.106 102.106 44.5357 102.106 50C102.106 55.4643 106.536 59.8941 112 59.8941Z" fill="url(#paint1_linear_185_1017)" stroke="#375BD2" stroke-width="0.211898"/>
<path id="Vector_8" d="M104.364 50C104.364 45.7828 107.783 42.364 112 42.364C116.217 42.364 119.636 45.7828 119.636 50C119.636 54.2172 116.217 57.636 112 57.636C107.783 57.636 104.364 54.2172 104.364 50Z" fill="url(#paint2_linear_185_1017)" stroke="#375BD2" stroke-width="0.211898"/>
<path id="Vector_9" d="M111.962 47.2222L114.381 48.6115V51.4041L111.962 52.7934L109.543 51.4041V48.6316L111.962 47.2222ZM111.962 45.1614L111.077 45.6739L108.658 47.0786L107.774 47.5896V52.4275L108.658 52.9385L111.077 54.3278L111.962 54.8388L112.853 54.334L115.272 52.9231L116.156 52.4121V47.5803L115.272 47.0694L112.853 45.6801L111.968 45.1675L111.962 45.1614Z" fill="url(#paint3_linear_185_1017)"/>
<path id="Vector_10" d="M77.2599 169.554C77.2599 170.56 76.444 171.376 75.4376 171.376C74.4311 171.376 73.6152 170.56 73.6152 169.554C73.6152 168.547 74.4311 167.731 75.4376 167.731C76.444 167.731 77.2599 168.547 77.2599 169.554Z" stroke="#9DB4F4" stroke-width="0.212571" stroke-miterlimit="10"/>
<path id="Vector_11" d="M75.499 166.092V130.992" stroke="#9DB4F4" stroke-width="0.212571" stroke-miterlimit="10"/>
<path id="Vector_12" d="M175.625 56.8953H11.5105C11.1204 56.8953 10.8042 57.2115 10.8042 57.6016V171.407C10.8042 171.797 11.1204 172.113 11.5105 172.113H175.625C176.015 172.113 176.331 171.797 176.331 171.407V57.6016C176.331 57.2115 176.015 56.8953 175.625 56.8953Z" fill="#CEDAFD"/>
<path id="Vector_13" d="M168.82 50H4.7063C4.31622 50 4 50.3162 4 50.7063V164.512C4 164.902 4.31622 165.218 4.7063 165.218H168.82C169.211 165.218 169.527 164.902 169.527 164.512V50.7063C169.527 50.3162 169.211 50 168.82 50Z" fill="url(#paint4_linear_185_1017)"/>
<path id="Vector_14" d="M167.139 166.099H7.26664C6.40024 166.098 5.5697 165.753 4.95727 165.14C4.34484 164.527 4.00058 163.696 4 162.83V53.2689C4.00058 52.4025 4.34484 51.5717 4.95727 50.9589C5.5697 50.346 6.40024 50.0012 7.26664 50H167.139C168.006 50.0006 168.837 50.3451 169.45 50.9579C170.063 51.5708 170.408 52.4019 170.41 53.2689V162.83C170.408 163.697 170.063 164.528 169.45 165.141C168.837 165.754 168.006 166.098 167.139 166.099ZM7.26664 50.8829C6.6344 50.884 6.02843 51.1359 5.58157 51.5831C5.13472 52.0304 4.88346 52.6366 4.88288 53.2689V162.83C4.88346 163.462 5.13472 164.068 5.58157 164.516C6.02843 164.963 6.6344 165.215 7.26664 165.216H167.139C167.771 165.215 168.378 164.964 168.826 164.516C169.273 164.069 169.526 163.463 169.527 162.83V53.2689C169.526 52.636 169.273 52.0295 168.826 51.5822C168.378 51.135 167.771 50.8835 167.139 50.8829H7.26664Z" stroke="#375BD2" stroke-width="0.211898"/>
<g id="Group_2" opacity="0.15">
<path id="Vector_15" opacity="0.15" d="M23.5518 77.1178L29.1051 74.3169V75.9083L25.2822 77.7535L29.1051 79.6009V81.2056L23.5518 78.4245V77.1178Z" fill="#2C5BDE"/>
<path id="Vector_16" opacity="0.15" d="M31.0792 81.6912H29.5342L34.1075 72.3018H35.6702L31.0792 81.6912Z" fill="#2C5BDE"/>
<path id="Vector_17" opacity="0.15" d="M41.6334 78.4113L36.0801 81.2056V79.6164L39.9029 77.769L36.0801 75.9216V74.3081L41.6334 77.109V78.4113Z" fill="#2C5BDE"/>
<path id="Vector_18" opacity="0.15" d="M103.722 96.5544H23.1084V97.2343H103.722V96.5544Z" fill="#2C5BDE"/>
<path id="Vector_19" opacity="0.15" d="M103.722 100.656H23.1084V101.335H103.722V100.656Z" fill="#2C5BDE"/>
<path id="Vector_20" opacity="0.15" d="M103.722 108.853H23.1084V109.533H103.722V108.853Z" fill="#2C5BDE"/>
<path id="Vector_21" opacity="0.15" d="M69.1903 112.954H23.1084V113.634H69.1903V112.954Z" fill="#2C5BDE"/>
<path id="Vector_22" opacity="0.15" d="M69.1903 117.053H23.1084V117.733H69.1903V117.053Z" fill="#2C5BDE"/>
<path id="Vector_23" opacity="0.15" d="M118.281 104.754H23.1084V105.434H118.281V104.754Z" fill="#2C5BDE"/>
<path id="Vector_24" opacity="0.15" d="M142.498 86.7346H23.1084V92.1732H142.498V86.7346Z" fill="#2C5BDE"/>
<path id="Vector_25" opacity="0.15" d="M130.427 136.496H23.1084V137.175H130.427V136.496Z" fill="#2C5BDE"/>
<path id="Vector_26" opacity="0.15" d="M130.427 140.597H23.1084V141.277H130.427V140.597Z" fill="#2C5BDE"/>
<path id="Vector_27" opacity="0.15" d="M103.722 148.794H23.1084V149.474H103.722V148.794Z" fill="#2C5BDE"/>
<path id="Vector_28" opacity="0.15" d="M103.146 144.696H23.1084V145.375H103.146V144.696Z" fill="#2C5BDE"/>
<path id="Vector_29" opacity="0.15" d="M142.498 126.676H23.1084V132.115H142.498V126.676Z" fill="#2C5BDE"/>
</g>
<path id="Vector_30" d="M164.25 62.8457H10.1606V63.2871H164.25V62.8457Z" fill="#2F59D4"/>
<path id="Vector_31" d="M12.8048 59.4182C13.7751 59.4182 14.5617 58.6316 14.5617 57.6612C14.5617 56.6909 13.7751 55.9043 12.8048 55.9043C11.8345 55.9043 11.0479 56.6909 11.0479 57.6612C11.0479 58.6316 11.8345 59.4182 12.8048 59.4182Z" fill="url(#paint5_linear_185_1017)"/>
<path id="Vector_32" d="M18.7247 59.4182C19.695 59.4182 20.4816 58.6316 20.4816 57.6612C20.4816 56.6909 19.695 55.9043 18.7247 55.9043C17.7544 55.9043 16.9678 56.6909 16.9678 57.6612C16.9678 58.6316 17.7544 59.4182 18.7247 59.4182Z" fill="url(#paint6_linear_185_1017)"/>
<path id="Vector_33" d="M24.6446 59.4182C25.615 59.4182 26.4016 58.6316 26.4016 57.6612C26.4016 56.6909 25.615 55.9043 24.6446 55.9043C23.6743 55.9043 22.8877 56.6909 22.8877 57.6612C22.8877 58.6316 23.6743 59.4182 24.6446 59.4182Z" fill="url(#paint7_linear_185_1017)"/>
<path id="Vector_34" d="M87 140C101.912 140 114 127.912 114 113C114 98.0883 101.912 86 87 86C72.0883 86 60 98.0883 60 113C60 127.912 72.0883 140 87 140Z" fill="url(#paint8_linear_185_1017)"/>
<path id="Vector_35" d="M154.958 175.227L144.136 185.316L108.466 146.735L119.288 136.648L154.958 175.227Z" fill="#F4F6FD"/>
<path id="Vector_36" d="M165.03 196.758L164.905 196.875C161.492 200.056 156.789 200.561 154.403 198.001L126.879 168.919L139.46 156.68L166.898 186.36C169.275 188.92 168.445 193.573 165.03 196.758Z" fill="url(#paint9_linear_185_1017)"/>
<path id="Vector_37" opacity="0.2" d="M110.983 149.348L111.012 149.573L122.891 162.412L134.3 152.91L121.627 139.084L110.983 149.348Z" fill="url(#paint10_linear_185_1017)"/>
<path id="Vector_38" d="M119.751 81.8118C102.976 63.8231 74.8037 62.8299 56.8128 79.6046C38.8219 96.3793 37.8309 124.552 54.6056 142.543C71.3803 160.534 99.553 161.525 117.544 144.75C135.535 127.975 136.521 99.8027 119.751 81.8118ZM113.299 140.199C107.757 145.366 100.807 148.773 93.3282 149.99C85.8493 151.207 78.1775 150.179 71.283 147.036C64.3884 143.892 58.5808 138.775 54.5946 132.331C50.6084 125.887 48.6227 118.406 48.8885 110.833C49.1543 103.261 51.6597 95.937 56.0879 89.7884C60.5161 83.6397 66.6682 78.9423 73.7661 76.2902C80.8641 73.638 88.5891 73.1503 95.9643 74.8886C103.339 76.627 110.033 80.5133 115.2 86.0562C122.127 93.4882 125.818 103.368 125.462 113.521C125.106 123.675 120.731 133.271 113.299 140.199Z" fill="url(#paint11_linear_185_1017)"/>
<path id="Vector_39" opacity="0.5" d="M114.264 139.264C129.224 124.304 129.224 100.048 114.264 85.088C99.3035 70.1278 75.0481 70.1278 60.0879 85.0881C45.1276 100.048 45.1276 124.304 60.0879 139.264C75.0481 154.224 99.3035 154.224 114.264 139.264Z" fill="#DCE6FC"/>
<g id="Group_3" opacity="0.6">
<path id="Vector_40" opacity="0.6" d="M59.67 103.52C62.7981 91.676 73.8309 83.0591 86.6741 82.8428C99.5172 82.6265 111.036 90.9564 114.418 102.752C115.375 106.076 120.845 104.906 119.888 101.575C117.992 94.9477 113.959 89.0577 108.362 84.7397C102.764 80.4218 95.8851 77.8948 88.6994 77.5168C74.1939 76.7862 60.9046 85.4495 55.5523 98.185C55.0447 99.42 54.6245 100.686 54.2946 101.975C53.4137 105.308 58.7776 106.87 59.6654 103.52H59.67Z" fill="white"/>
</g>
<path id="Vector_41" d="M127.446 168.555L139.409 156.909C139.607 156.716 139.727 156.456 139.744 156.179C139.762 155.903 139.676 155.63 139.504 155.413L139.389 155.267C139.292 155.144 139.169 155.043 139.03 154.971C138.89 154.898 138.737 154.856 138.58 154.847C138.423 154.838 138.266 154.862 138.119 154.918C137.972 154.973 137.839 155.059 137.727 155.17L125.864 166.946C125.758 167.05 125.674 167.174 125.616 167.311C125.559 167.448 125.529 167.595 125.529 167.743C125.529 167.892 125.559 168.039 125.616 168.176C125.674 168.313 125.758 168.437 125.864 168.541L125.881 168.557C126.09 168.762 126.372 168.876 126.664 168.876C126.957 168.875 127.238 168.76 127.446 168.555Z" fill="#2E59D9"/>
<path id="Vector_42" d="M123.195 122.135C120.816 130.992 115.307 138.687 107.69 143.795C100.073 148.903 90.8636 151.078 81.7662 149.917C72.5533 148.791 63.996 144.079 57.9152 137.115C51.9955 130.333 48.731 121.444 48.667 112.463C48.631 103.255 51.9453 94.3484 57.9919 87.4039C64.0385 80.4593 72.4046 75.9512 81.53 74.7201C90.8002 73.4686 100.309 75.7972 108.032 81.0348C115.47 86.0761 120.849 93.852 123.209 102.493C124.928 108.929 124.924 115.704 123.195 122.137C122.86 123.409 124.829 123.936 125.164 122.667C127.517 113.765 126.757 104.327 123.012 95.9158C119.364 87.6895 112.806 80.8605 104.818 76.7529C96.4824 72.5105 86.9306 71.2995 77.7999 73.3273C69.0726 75.2586 61.1046 80.2778 55.4939 87.215C49.6301 94.5264 46.4973 103.653 46.6342 113.024C46.7622 122.027 50.1083 130.772 55.7764 137.731C61.6012 144.885 69.9753 149.754 79.005 151.524C87.9596 153.29 97.3247 151.806 105.37 147.551C115.099 142.417 122.282 133.242 125.164 122.66C125.511 121.398 123.542 120.868 123.195 122.135Z" fill="white"/>
<path id="Vector_43" d="M87.2436 112.929C91.0899 112.929 94.2079 109.811 94.2079 105.964C94.2079 102.118 91.0899 99 87.2436 99C83.3973 99 80.2793 102.118 80.2793 105.964C80.2793 109.811 83.3973 112.929 87.2436 112.929Z" fill="white"/>
<path id="Vector_44" d="M100.486 126.857C99.586 124.052 97.8188 121.605 95.4388 119.868C93.0588 118.132 90.1889 117.197 87.2429 117.197C84.2968 117.197 81.4269 118.132 79.0469 119.868C76.6668 121.605 74.8996 124.052 74 126.857H100.486Z" fill="white"/>
<path id="Vector_45" d="M87.2436 112.929C91.0899 112.929 94.2079 109.811 94.2079 105.964C94.2079 102.118 91.0899 99 87.2436 99C83.3973 99 80.2793 102.118 80.2793 105.964C80.2793 109.811 83.3973 112.929 87.2436 112.929Z" stroke="white" stroke-width="1.14286" stroke-linecap="round" stroke-linejoin="round"/>
<path id="Vector_46" d="M100.486 126.857C99.586 124.052 97.8188 121.605 95.4388 119.868C93.0588 118.132 90.1889 117.197 87.2429 117.197C84.2968 117.197 81.4269 118.132 79.0469 119.868C76.6668 121.605 74.8996 124.052 74 126.857H100.486Z" stroke="white" stroke-width="1.14286" stroke-linecap="round" stroke-linejoin="round"/>
<path id="Vector_47" d="M64.0001 65.8941C74.435 65.8941 82.8942 57.4349 82.8942 47C82.8942 36.5651 74.435 28.1059 64.0001 28.1059C53.5651 28.1059 45.106 36.5651 45.106 47C45.106 57.4349 53.5651 65.8941 64.0001 65.8941Z" fill="url(#paint12_linear_185_1017)" stroke="#375BD2" stroke-width="0.211898"/>
<path id="Vector_48" d="M49.3965 47.0003C49.3965 38.9349 55.9348 32.3966 64.0002 32.3966C72.0656 32.3966 78.6039 38.9349 78.6039 47.0003C78.6039 55.0657 72.0656 61.604 64.0002 61.604C55.9348 61.604 49.3965 55.0657 49.3965 47.0003Z" fill="url(#paint13_linear_185_1017)" stroke="#375BD2" stroke-width="0.211898"/>
<path id="Vector_49" d="M63.9275 41.7222L68.5235 44.3619V49.6678L63.9275 52.3075L59.3315 49.6678V44.4001L63.9275 41.7222ZM63.9275 37.8066L62.2469 38.7804L57.6508 41.4494L55.9702 42.4203V51.6124L57.6508 52.5832L62.2469 55.2229L63.9275 56.1937L65.6199 55.2346L70.2159 52.5538L71.8965 51.583V42.4027L70.2159 41.4318L65.6199 38.7921L63.9392 37.8184L63.9275 37.8066Z" fill="url(#paint14_linear_185_1017)"/>
<path id="Vector_50" d="M91.0001 37.8941C98.1213 37.8941 103.894 32.1212 103.894 25C103.894 17.8788 98.1213 12.1059 91.0001 12.1059C83.8788 12.1059 78.106 17.8788 78.106 25C78.106 32.1212 83.8788 37.8941 91.0001 37.8941Z" fill="url(#paint15_linear_185_1017)" stroke="#375BD2" stroke-width="0.211898"/>
<path id="Vector_51" d="M81.042 25.0002C81.042 19.5002 85.5006 15.0416 91.0005 15.0416C96.5005 15.0416 100.959 19.5002 100.959 25.0002C100.959 30.5001 96.5005 34.9587 91.0005 34.9587C85.5006 34.9587 81.042 30.5001 81.042 25.0002Z" fill="url(#paint16_linear_185_1017)" stroke="#375BD2" stroke-width="0.211898"/>
<path id="Vector_52" d="M90.9498 21.3888L94.0945 23.1949V26.8252L90.9498 28.6313L87.8052 26.8252V23.221L90.9498 21.3888ZM90.9498 18.7097L89.7999 19.376L86.6553 21.2022L85.5054 21.8664V28.1557L86.6553 28.82L89.7999 30.6261L90.9498 31.2904L92.1078 30.6341L95.2524 28.7999L96.4023 28.1357V21.8544L95.2524 21.1901L92.1078 19.384L90.9579 18.7177L90.9498 18.7097Z" fill="url(#paint17_linear_185_1017)"/>
</g>
</g>
</g>
</g>
<defs>
<linearGradient id="paint0_linear_185_1017" x1="29.0686" y1="33.5644" x2="171.589" y2="166.463" gradientUnits="userSpaceOnUse">
<stop stop-color="#F3F6FE"/>
<stop offset="1" stop-color="#DEE7FC"/>
</linearGradient>
<linearGradient id="paint1_linear_185_1017" x1="105.548" y1="40.9677" x2="143.29" y2="98.2258" gradientUnits="userSpaceOnUse">
<stop stop-color="#DFE7FB"/>
<stop offset="1" stop-color="#375BD2"/>
</linearGradient>
<linearGradient id="paint2_linear_185_1017" x1="116.995" y1="56.9927" x2="87.7753" y2="12.6639" gradientUnits="userSpaceOnUse">
<stop stop-color="#F5F7FD"/>
<stop offset="0.313809" stop-color="#DFE7FB"/>
</linearGradient>
<linearGradient id="paint3_linear_185_1017" x1="107.755" y1="50.007" x2="116.159" y2="50.007" gradientUnits="userSpaceOnUse">
<stop stop-color="#6A87E3"/>
<stop offset="1" stop-color="#375BD2"/>
</linearGradient>
<linearGradient id="paint4_linear_185_1017" x1="30.9389" y1="30.7731" x2="142.586" y2="184.443" gradientUnits="userSpaceOnUse">
<stop stop-color="white"/>
<stop offset="1" stop-color="#F3F3F8"/>
</linearGradient>
<linearGradient id="paint5_linear_185_1017" x1="11.0456" y1="57.6612" x2="14.5617" y2="57.6612" gradientUnits="userSpaceOnUse">
<stop stop-color="#2A5ADA"/>
<stop offset="1" stop-color="#2A5ADA" stop-opacity="0.8"/>
</linearGradient>
<linearGradient id="paint6_linear_185_1017" x1="16.9678" y1="57.6612" x2="20.4816" y2="57.6612" gradientUnits="userSpaceOnUse">
<stop stop-color="#2A5ADA"/>
<stop offset="1" stop-color="#2A5ADA" stop-opacity="0.8"/>
</linearGradient>
<linearGradient id="paint7_linear_185_1017" x1="22.8877" y1="57.6612" x2="26.4016" y2="57.6612" gradientUnits="userSpaceOnUse">
<stop stop-color="#2A5ADA"/>
<stop offset="1" stop-color="#2A5ADA" stop-opacity="0.8"/>
</linearGradient>
<linearGradient id="paint8_linear_185_1017" x1="112" y1="80.5" x2="60" y2="142" gradientUnits="userSpaceOnUse">
<stop stop-color="#375BD2"/>
<stop offset="1" stop-color="#A0B3F2"/>
</linearGradient>
<linearGradient id="paint9_linear_185_1017" x1="145.875" y1="155.786" x2="147.651" y2="180.554" gradientUnits="userSpaceOnUse">
<stop stop-color="#6A8AEB"/>
<stop offset="1" stop-color="#2E59D9"/>
</linearGradient>
<linearGradient id="paint10_linear_185_1017" x1="117.631" y1="181.184" x2="123.708" y2="144.735" gradientUnits="userSpaceOnUse">
<stop offset="0.34" stop-color="#6A8AEB" stop-opacity="0"/>
<stop offset="1" stop-color="#2E59D9"/>
</linearGradient>
<linearGradient id="paint11_linear_185_1017" x1="43" y1="117.819" x2="131.354" y2="106.532" gradientUnits="userSpaceOnUse">
<stop stop-color="#6A8AEB"/>
<stop offset="1" stop-color="#2E59D9"/>
</linearGradient>
<linearGradient id="paint12_linear_185_1017" x1="51.742" y1="29.8387" x2="123.452" y2="138.629" gradientUnits="userSpaceOnUse">
<stop stop-color="#DFE7FB"/>
<stop offset="1" stop-color="#375BD2"/>
</linearGradient>
<linearGradient id="paint13_linear_185_1017" x1="73.4903" y1="60.2864" x2="17.9732" y2="-23.9383" gradientUnits="userSpaceOnUse">
<stop stop-color="#F5F7FD"/>
<stop offset="0.313809" stop-color="#DFE7FB"/>
</linearGradient>
<linearGradient id="paint14_linear_185_1017" x1="55.935" y1="47.0134" x2="71.9024" y2="47.0134" gradientUnits="userSpaceOnUse">
<stop stop-color="#6A87E3"/>
<stop offset="1" stop-color="#375BD2"/>
</linearGradient>
<linearGradient id="paint15_linear_185_1017" x1="82.613" y1="13.2581" x2="131.677" y2="87.6935" gradientUnits="userSpaceOnUse">
<stop stop-color="#DFE7FB"/>
<stop offset="1" stop-color="#375BD2"/>
</linearGradient>
<linearGradient id="paint16_linear_185_1017" x1="97.4938" y1="34.0907" x2="59.5084" y2="-23.5368" gradientUnits="userSpaceOnUse">
<stop stop-color="#F5F7FD"/>
<stop offset="0.313809" stop-color="#DFE7FB"/>
</linearGradient>
<linearGradient id="paint17_linear_185_1017" x1="85.4813" y1="25.0091" x2="96.4063" y2="25.0091" gradientUnits="userSpaceOnUse">
<stop stop-color="#6A87E3"/>
<stop offset="1" stop-color="#375BD2"/>
</linearGradient>
<clipPath id="clip0_185_1017">
<rect width="200" height="200" fill="white"/>
</clipPath>
</defs>
</svg>
